<svg xmlns="http://www.w3.org/2000/svg" viewBox="0 0 64 64" role="img" aria-label="gdmn Meet icon">
  <defs>
    <linearGradient id="bg" x1="10" y1="8" x2="54" y2="56" gradientUnits="userSpaceOnUse">
      <stop offset="0" stop-color="#fde047" />
      <stop offset="1" stop-color="#f97316" />
    </linearGradient>
    <linearGradient id="badge" x1="36" y1="39" x2="52" y2="54" gradientUnits="userSpaceOnUse">
      <stop offset="0" stop-color="#22d3ee" />
      <stop offset="1" stop-color="#0284c7" />
    </linearGradient>
  </defs>
  <rect x="5" y="5" width="54" height="54" rx="16" fill="url(#bg)" stroke="#7c2d12" stroke-width="3" />
  <path d="M18 24c0-3.314 2.686-6 6-6h11c3.314 0 6 2.686 6 6v1.193l8.016-4.215C50.99 19.941 54 21.372 54 23.603v16.795c0 2.231-3.01 3.662-4.984 2.625L41 38.807V40c0 3.314-2.686 6-6 6H24c-3.314 0-6-2.686-6-6V24Z" fill="#111827" />
  <circle cx="29.5" cy="32" r="6.5" fill="#fef3c7" />
  <path d="M42 40c2.74 0 5.735.887 8 2.588V46c0 4.305-3.169 7.598-8 9.5c-4.831-1.902-8-5.195-8-9.5v-3.412C36.265 40.887 39.26 40 42 40Z" fill="url(#badge)" />
  <path d="m37.6 47.2 2.8 2.8 6-6" fill="none" stroke="#ecfeff" stroke-linecap="round" stroke-linejoin="round" stroke-width="3.1" />
</svg>